<?xml version="1.0" encoding="utf-8"?>
<!-- Generator: Adobe Illustrator 21.1.0, SVG Export Plug-In . SVG Version: 6.00 Build 0)  -->
<svg version="1.1" id="Layer_1" xmlns="http://www.w3.org/2000/svg" xmlns:xlink="http://www.w3.org/1999/xlink" x="0px" y="0px"
	 viewBox="0 0 500 500" style="enable-background:new 0 0 500 500;" xml:space="preserve">
<style type="text/css">
	.st0{fill:none;stroke:#FFFFFF;stroke-width:22;stroke-miterlimit:10;}
	.st1{fill:none;stroke:#FFFFFF;stroke-width:22;stroke-linecap:round;stroke-miterlimit:10;}
</style>
<path class="st0" d="M172,193L32.5,31.9c-0.5-0.5,0.2-1.3,0.8-1L224,144"/>
<path class="st1" d="M293.9,73.9c29.9-7,68.2-5.9,115.7,13c0.2,0.1,0.2,0.3,0,0.4L377,107c0,0,47.5,18.8,86.4,58.4
	c0.3,0.3,0.2,0.8-0.2,1L437,180c0,0,18,15,35,44"/>
<path class="st1" d="M207.3,134.1c0,0,17.5-30.4,56.1-49.4"/>
<path class="st1" d="M264,134V56.2c0-4.6,4.9-7.4,8.9-5.3c11.8,6.4,31.6,26.9,35.1,92"/>
<path class="st1" d="M264,118c0,0-13.7-1-229.8,196.5c-9.9,9-6.1,25.7,6.9,29.1c2.2,0.6,4.7,0.9,7.6,0.8c2.7,0,4.8,2.2,4.6,4.9
	c-1,15,2.1,51.9,71.6-23.3"/>
<path class="st1" d="M85.9,362.4c0,0,9.1,13.6,27.1,19.6c0,0,111-52,145-53s65-33,65-33s35-32,13-93"/>
<line class="st1" x1="286" y1="322" x2="343" y2="473"/>
<path class="st1" d="M353,143c0,0,87,91,119,210"/>
<path class="st1" d="M326,126c0,0-10.8-7-20.4-8"/>
<path class="st1" d="M215,207c0,0,21,17,42,0"/>
</svg>
