<?xml version="1.0" encoding="utf-8"?>
<!-- Generator: Adobe Illustrator 21.1.0, SVG Export Plug-In . SVG Version: 6.00 Build 0)  -->
<svg version="1.1" id="Layer_1" xmlns="http://www.w3.org/2000/svg" xmlns:xlink="http://www.w3.org/1999/xlink" x="0px" y="0px"
	 viewBox="0 0 500 500" style="enable-background:new 0 0 500 500;" xml:space="preserve">
<style type="text/css">
	.st0{fill:none;stroke:#FFFFFF;stroke-width:24;stroke-linecap:round;stroke-miterlimit:10;}
	.st1{fill:#FFFFFF;}
</style>
<path class="st0" d="M245,469c29.8-9.6,26.6-3.2,58.5-92.5c25.1-70.2,35-89.2,38.2-94.1c0.7-1,1.2-2.1,1.8-3.2
	c1.6-3.1,7.6-10.9,29.2-22.9c9.3-5.2,15.6-11.8,19.9-18.4c7.1-11.1,9.7-24.5,7.9-37.6c-3.8-27.7-17.9-42.1-27.9-49
	c-6.8-4.7-11.8-11.7-14.1-19.6C330.4,35.9,245,33,245,33l0,0l0,0h0l0,0c0,0-85.4,2.9-113.4,98.7c-2.3,7.9-7.3,14.9-14.1,19.6
	c-10,6.9-24.1,21.2-27.9,49c-1.8,13.1,0.8,26.5,7.9,37.6c4.3,6.6,10.6,13.3,19.9,18.4c21.5,12,27.5,19.7,29.2,22.9
	c0.6,1.1,1.1,2.2,1.8,3.2c3.1,4.9,13.1,23.9,38.2,94.1C218.4,465.8,215.2,459.4,245,469"/>
<g>
	<path class="st1" d="M138,215c0,0-13-20,10-31c19.7-9.4,26.9-14.4,38-32.6c2.7-4.5,5.2-9.2,7.6-13.9c2.7-5.3,8.5-15,16.4-16.5
		c11-2,16,16,14,31s-8,50-37,71S138,215,138,215z"/>
</g>
<g>
	<path class="st1" d="M350.8,215c0,0,13-20-10-31c-19.7-9.4-26.9-14.4-38-32.6c-2.7-4.5-5.2-9.2-7.6-13.9c-2.7-5.3-8.5-15-16.4-16.5
		c-11-2-16,16-14,31s8,50,37,71S350.8,215,350.8,215z"/>
</g>
<g>
	<path class="st1" d="M244,431c0,0-16.8,3-20.9-76.9c0-0.7-0.1-1.5-0.2-2.2c-1.1-7-7.1-46.3-9.8-59.9c-1.5-7.5,1-13,3.9-16.6
		c2.7-3.4,6.4-5.7,10.5-7c8.1-2.5,25.7-5.8,40.6,7.6c0,0,9,7,7,26s-7,32-9,51c-2,18.6-2,46.8-9.5,65.8c-0.2,0.6-0.5,1.2-0.7,1.9
		C255.2,422.9,252.4,430.2,244,431z"/>
</g>
<g>
	<path class="st1" d="M226.2,249.7c-3.1,0.5-5.8-2.1-5.4-5.2c0.5-4.4,2.4-11.9,8.2-23.4c11-22,15-24,15-24s4-4,18,26s4,27,4,27
		s-3,1-12-6s-10-5-10-5s-3,1-8,5C232.2,247.1,230.7,248.9,226.2,249.7z"/>
</g>
</svg>
