<?xml version="1.0" encoding="utf-8"?>
<!-- Generator: Adobe Illustrator 21.1.0, SVG Export Plug-In . SVG Version: 6.00 Build 0)  -->
<svg version="1.1" id="Capa_1" xmlns="http://www.w3.org/2000/svg" xmlns:xlink="http://www.w3.org/1999/xlink" x="0px" y="0px"
	 viewBox="0 0 512 512" style="enable-background:new 0 0 512 512;" xml:space="preserve">
<style type="text/css">
	.st0{display:none;}
	.st1{display:inline;}
	.st2{fill:#FFFFFF;}
	.st3{fill:none;stroke:#FFFFFF;stroke-width:30;stroke-linecap:round;stroke-linejoin:round;stroke-miterlimit:10;}
	.st4{fill:none;stroke:#FFFFFF;stroke-width:30;stroke-miterlimit:10;}
</style>
<g class="st0">
	<g class="st1">
		<path d="M491.7,286c-5.2-1.9-10.9,0.8-12.8,6c-1.9,5.2,0.8,10.9,6,12.8c5.2,1.9,10.9-0.8,12.8-6
			C499.5,293.6,496.9,287.9,491.7,286z"/>
	</g>
</g>
<g class="st0">
	<g class="st1">
		<path d="M255.4,116.7c-5.5,0-10,4.5-10,10c0,5.5,4.5,10,10,10c5.5,0,10-4.5,10-10C265.4,121.1,260.9,116.7,255.4,116.7z"/>
	</g>
</g>
<g class="st0">
	<g class="st1">
		<path d="M330.4,268c-3.1-1.8-6.9-1.8-10,0c-19.8,11.3-42.2,17.3-65,17.3s-45.3-6-65-17.3c-3.1-1.8-6.9-1.8-10,0
			c-3.1,1.8-5,5.1-5,8.6c0,44.1,35.9,80,80,80c44.1,0,80-35.7,80-80C335.4,273.1,333.5,269.8,330.4,268z M255.4,336.6
			c-27.1,0-50.1-18.1-57.5-42.8c18.2,7.5,37.7,11.4,57.5,11.4c19.8,0,39.3-3.9,57.5-11.4C305.6,318.2,283,336.6,255.4,336.6z"/>
	</g>
</g>
<g class="st0">
	<g class="st1">
		<path d="M443.8,417.5c-41.4-15.1-87.4,6.4-102.5,47.8c-1.2,3.3-0.6,7.1,1.7,9.8c2.3,2.7,5.9,4,9.4,3.4
			c44.9-7.7,91.6,8.3,122.2,44.5c2.3,2.7,5.9,4,9.4,3.4c3.5-0.6,6.4-3.1,7.6-6.4c3.2-8.8,4.8-18,4.8-27.4
			C496.5,459.2,475.3,429,443.8,417.5z M476.4,496.1c-30.2-27.6-69.2-40.9-108-39.3c15.4-20.7,43.2-29.8,68.6-20.5
			c23.6,8.6,39.5,31.2,39.5,56.4C476.5,493.8,476.4,495,476.4,496.1z"/>
	</g>
</g>
<g class="st0">
	<g class="st1">
		<path d="M553.5,394.9c-2-14.4-11.8-26.9-25.9-32.1c-13.3-4.8-28.4-2.2-39.3,6.9c-4.2,3.5-4.8,9.8-1.3,14.1
			c3.5,4.2,9.8,4.8,14.1,1.3c5.5-4.5,13-5.9,19.7-3.4c7.2,2.6,12,8.9,13,16c0.8,5.5,5.8,9.3,11.3,8.5
			C550.4,405.4,554.2,400.4,553.5,394.9z"/>
	</g>
</g>
<g>
	<path class="st2" d="M247,47.6c33.2,0,57.5,3.8,70.9,6.6c7,1.5,12.4,7.2,13.3,14.4L350.8,224c3,23.5,1.6,47.4-4.5,70.3
		c-8.1,30.2-22.3,52.3-38,68.4c-25.2,25.9-58.9,39.4-92.9,39.4c-24.8,0-49.7-7.2-71.6-22c-15.3-10.4-27.4-23-36.9-35.8
		c-18.3-24.5-29.6-53.6-33.4-84L53.8,103.8c-0.9-7.2,2.9-14.2,9.5-17.3c19.9-9.4,65.8-28.1,128.6-35.6
		C212.2,48.5,230.6,47.6,247,47.6 M247,17.6c-19.1,0-38.8,1.2-58.6,3.5C122.2,29,73.6,48.5,50.5,59.4c-18.4,8.7-29,28.1-26.4,48.2
		l19.8,156.5C48.4,300,61.9,334,83,362.2c12.7,17.1,27.5,31.4,44,42.6c26.2,17.8,56.8,27.2,88.4,27.2c21.1,0,41.8-4.1,61.3-12.3
		c20-8.4,37.9-20.5,53.1-36.2c21.6-22.2,36.9-49.7,45.5-81.6c7-26.3,8.8-53.8,5.3-81.8L360.9,64.8c-2.5-19.9-17.4-35.9-37-40
		C308.1,21.5,281.9,17.6,247,17.6L247,17.6z"/>
</g>
<path class="st3" d="M118.2,186.6c0,0,4.5-16.9,24.5-19.4s28.9,12.6,28.9,12.6"/>
<path class="st3" d="M237.1,171.6c0,0,4.5-16.9,24.5-19.4c20-2.5,28.9,12.6,28.9,12.6"/>
<path class="st4" d="M150.3,280.8c-1.8-5.1,2.9-10.2,8.1-8.8c13,3.6,35.5,8.1,59.1,5.1c23.7-3,44.6-13.1,56.5-19.8
	c4.7-2.7,10.5,1.1,10,6.5c-1.8,20.4-11.8,58.4-59.7,64.5C176.3,334.3,157.2,300.1,150.3,280.8z"/>
<path class="st3" d="M169.3,412.7c38.9,41.8,100.8,55,154.7,31.5c21.9-9.5,44.7-25.5,64.8-52c15.2-20,26.1-43,32.6-67.2l43.1-160.6
	c2-7.4-0.9-15.2-7.3-19.5c-15.6-10.5-48.7-30.1-98.7-46.6"/>
</svg>
