<?xml version="1.0" encoding="utf-8"?>
<!-- Generator: Adobe Illustrator 21.1.0, SVG Export Plug-In . SVG Version: 6.00 Build 0)  -->
<svg version="1.1" id="Layer_1" xmlns="http://www.w3.org/2000/svg" xmlns:xlink="http://www.w3.org/1999/xlink" x="0px" y="0px"
	 viewBox="0 0 500 500" style="enable-background:new 0 0 500 500;" xml:space="preserve">
<style type="text/css">
	.st0{fill:#FFFFFF;}
	.st1{fill:none;stroke:#FFFFFF;stroke-width:30;stroke-linecap:round;stroke-miterlimit:10;}
</style>
<g>
	<path class="st0" d="M219.1,65.4c49.3,0,95.7,19.2,130.5,54.1s54.1,81.2,54.1,130.5s-19.2,95.7-54.1,130.5s-81.2,54.1-130.5,54.1
		s-95.7-19.2-130.5-54.1S34.5,299.3,34.5,250s19.2-95.7,54.1-130.5S169.8,65.4,219.1,65.4 M219.1,35.4C100.6,35.4,4.5,131.5,4.5,250
		s96.1,214.6,214.6,214.6S433.7,368.5,433.7,250S337.6,35.4,219.1,35.4L219.1,35.4z"/>
</g>
<g>
	<line class="st1" x1="481.5" y1="448.7" x2="219.1" y2="448.7"/>
</g>
<circle class="st1" cx="219.1" cy="154.4" r="40.4"/>
<circle class="st1" cx="123.5" cy="250" r="40.4"/>
<circle class="st1" cx="314.7" cy="250" r="40.4"/>
<circle class="st1" cx="219.1" cy="345.6" r="40.4"/>
</svg>
