<?xml version="1.0" encoding="utf-8"?>
<!-- Generator: Adobe Illustrator 21.1.0, SVG Export Plug-In . SVG Version: 6.00 Build 0)  -->
<svg version="1.1" id="Capa_1" xmlns="http://www.w3.org/2000/svg" xmlns:xlink="http://www.w3.org/1999/xlink" x="0px" y="0px"
	 viewBox="0 0 512 512" style="enable-background:new 0 0 512 512;" xml:space="preserve">
<style type="text/css">
	.st0{display:none;}
	.st1{display:inline;}
	.st2{fill:#FFFFFF;}
	.st3{fill:none;stroke:#FFFFFF;stroke-width:30;stroke-linecap:round;stroke-linejoin:round;stroke-miterlimit:10;}
	.st4{fill:none;stroke:#FFFFFF;stroke-width:30;stroke-miterlimit:10;}
</style>
<g class="st0">
	<g class="st1">
		<path d="M491.7,286c-5.2-1.9-10.9,0.8-12.8,6c-1.9,5.2,0.8,10.9,6,12.8c5.2,1.9,10.9-0.8,12.8-6
			C499.5,293.6,496.9,287.9,491.7,286z"/>
	</g>
</g>
<g class="st0">
	<g class="st1">
		<path d="M255.4,116.7c-5.5,0-10,4.5-10,10c0,5.5,4.5,10,10,10c5.5,0,10-4.5,10-10C265.4,121.1,260.9,116.7,255.4,116.7z"/>
	</g>
</g>
<g class="st0">
	<g class="st1">
		<path d="M330.4,268c-3.1-1.8-6.9-1.8-10,0c-19.8,11.3-42.2,17.3-65,17.3s-45.3-6-65-17.3c-3.1-1.8-6.9-1.8-10,0
			c-3.1,1.8-5,5.1-5,8.6c0,44.1,35.9,80,80,80c44.1,0,80-35.7,80-80C335.4,273.1,333.5,269.8,330.4,268z M255.4,336.6
			c-27.1,0-50.1-18.1-57.5-42.8c18.2,7.5,37.7,11.4,57.5,11.4c19.8,0,39.3-3.9,57.5-11.4C305.6,318.2,283,336.6,255.4,336.6z"/>
	</g>
</g>
<g class="st0">
	<g class="st1">
		<path d="M443.8,417.5c-41.4-15.1-87.4,6.4-102.5,47.8c-1.2,3.3-0.6,7.1,1.7,9.8c2.3,2.7,5.9,4,9.4,3.4
			c44.9-7.7,91.6,8.3,122.2,44.5c2.3,2.7,5.9,4,9.4,3.4c3.5-0.6,6.4-3.1,7.6-6.4c3.2-8.8,4.8-18,4.8-27.4
			C496.5,459.2,475.3,429,443.8,417.5z M476.4,496.1c-30.2-27.6-69.2-40.9-108-39.3c15.4-20.7,43.2-29.8,68.6-20.5
			c23.6,8.6,39.5,31.2,39.5,56.4C476.5,493.8,476.4,495,476.4,496.1z"/>
	</g>
</g>
<g class="st0">
	<g class="st1">
		<path d="M553.5,394.9c-2-14.4-11.8-26.9-25.9-32.1c-13.3-4.8-28.4-2.2-39.3,6.9c-4.2,3.5-4.8,9.8-1.3,14.1
			c3.5,4.2,9.8,4.8,14.1,1.3c5.5-4.5,13-5.9,19.7-3.4c7.2,2.6,12,8.9,13,16c0.8,5.5,5.8,9.3,11.3,8.5
			C550.4,405.4,554.2,400.4,553.5,394.9z"/>
	</g>
</g>
<g>
	<path class="st2" d="M262.9,47.6c16.3,0,34.8,0.9,55.1,3.3c62.8,7.4,108.7,26.2,128.6,35.6c6.6,3.1,10.4,10.1,9.5,17.3l-19.8,156.5
		c-3.8,30.4-15.1,59.4-33.4,84c-9.5,12.7-21.6,25.4-36.9,35.8c-21.8,14.8-46.8,22-71.6,22c-34,0-67.7-13.5-92.9-39.4
		c-15.7-16.1-29.9-38.2-38-68.4c-6.1-22.9-7.5-46.8-4.5-70.3l19.7-155.5c0.9-7.1,6.2-12.9,13.3-14.4
		C205.4,51.4,229.8,47.6,262.9,47.6 M262.9,17.6v30V17.6c-35,0-61.2,3.9-77,7.2c-19.6,4.1-34.4,20.1-37,40l-19.7,155.5
		c-3.5,28-1.8,55.5,5.3,81.8c8.6,31.9,23.8,59.4,45.5,81.6c15.2,15.6,33.1,27.8,53.1,36.2c19.5,8.2,40.2,12.3,61.3,12.3
		c31.7,0,62.2-9.4,88.4-27.2c16.5-11.2,31.3-25.6,44-42.6c21.1-28.3,34.6-62.2,39.1-98.1l19.8-156.5c2.5-20.2-8.1-39.5-26.4-48.2
		C436.3,48.5,387.7,29,321.6,21.1C301.8,18.8,282.1,17.6,262.9,17.6L262.9,17.6z"/>
</g>
<path class="st3" d="M391.7,186.6c0,0-4.5-16.9-24.5-19.4c-20-2.5-28.9,12.6-28.9,12.6"/>
<path class="st3" d="M272.8,171.6c0,0-4.5-16.9-24.5-19.4s-28.9,12.6-28.9,12.6"/>
<path class="st4" d="M219.9,311.6c-1.8,5.1,2.9,10.2,8.1,8.8c13-3.6,35.5-8.1,59.1-5.1c23.7,3,44.6,13.1,56.5,19.8
	c4.7,2.7,10.5-1.1,10-6.5c-1.8-20.4-11.8-58.4-59.7-64.5C246,258.1,226.8,292.3,219.9,311.6z"/>
<path class="st3" d="M340.6,412.7c-38.9,41.8-100.8,55-154.7,31.5c-21.9-9.5-44.7-25.5-64.8-52c-15.2-20-26.1-43-32.6-67.2
	L45.3,164.3c-2-7.4,0.9-15.2,7.3-19.5c15.6-10.5,48.7-30.1,98.7-46.6"/>
</svg>
